<mxfile host="65bd71144e">
    <diagram id="AXiDMs4PfWzJ0FvgJ-wc" name="Page-1">
        <mxGraphModel dx="668" dy="307" grid="1" gridSize="5" guides="1" tooltips="1" connect="1" arrows="1" fold="1" page="1" pageScale="1" pageWidth="827" pageHeight="1169" math="0" shadow="0">
            <root>
                <mxCell id="0"/>
                <mxCell id="1" parent="0"/>
                <mxCell id="124" value="" style="group" vertex="1" connectable="0" parent="1">
                    <mxGeometry x="15" y="385" width="230" height="240" as="geometry"/>
                </mxCell>
                <mxCell id="121" value="" style="rounded=0;whiteSpace=wrap;html=1;labelBackgroundColor=none;strokeWidth=1;fontSize=10;" vertex="1" parent="124">
                    <mxGeometry width="230" height="240" as="geometry"/>
                </mxCell>
                <mxCell id="123" value="Smooth FFT renderig" style="text;html=1;strokeColor=none;fillColor=none;align=center;verticalAlign=middle;whiteSpace=wrap;rounded=0;labelBackgroundColor=none;strokeWidth=1;fontSize=10;" vertex="1" parent="124">
                    <mxGeometry x="55" width="120" height="20" as="geometry"/>
                </mxCell>
                <mxCell id="93" value="" style="group" vertex="1" connectable="0" parent="124">
                    <mxGeometry x="47" y="143" width="166" height="86" as="geometry"/>
                </mxCell>
                <mxCell id="43" value="" style="rounded=0;whiteSpace=wrap;html=1;" vertex="1" parent="93">
                    <mxGeometry width="166" height="86" as="geometry"/>
                </mxCell>
                <mxCell id="49" value="" style="endArrow=oval;dashed=1;html=1;dashPattern=1 1;strokeWidth=1;startSize=5;strokeColor=#858585;endFill=1;endSize=2;" edge="1" parent="93">
                    <mxGeometry width="50" height="50" relative="1" as="geometry">
                        <mxPoint x="63" y="82" as="sourcePoint"/>
                        <mxPoint x="63" y="3" as="targetPoint"/>
                    </mxGeometry>
                </mxCell>
                <mxCell id="50" value="" style="endArrow=oval;dashed=1;html=1;dashPattern=1 1;strokeWidth=1;startSize=5;strokeColor=#858585;endFill=1;endSize=2;" edge="1" parent="93">
                    <mxGeometry width="50" height="50" relative="1" as="geometry">
                        <mxPoint x="73" y="83" as="sourcePoint"/>
                        <mxPoint x="73" y="3" as="targetPoint"/>
                    </mxGeometry>
                </mxCell>
                <mxCell id="51" value="" style="endArrow=oval;dashed=1;html=1;dashPattern=1 1;strokeWidth=1;startSize=5;strokeColor=#858585;endFill=1;endSize=2;" edge="1" parent="93">
                    <mxGeometry width="50" height="50" relative="1" as="geometry">
                        <mxPoint x="83" y="83" as="sourcePoint"/>
                        <mxPoint x="83" y="3" as="targetPoint"/>
                    </mxGeometry>
                </mxCell>
                <mxCell id="52" value="" style="endArrow=oval;dashed=1;html=1;dashPattern=1 1;strokeWidth=1;startSize=5;strokeColor=#858585;endFill=1;endSize=2;" edge="1" parent="93">
                    <mxGeometry width="50" height="50" relative="1" as="geometry">
                        <mxPoint x="93" y="83" as="sourcePoint"/>
                        <mxPoint x="93" y="3" as="targetPoint"/>
                    </mxGeometry>
                </mxCell>
                <mxCell id="53" value="" style="endArrow=oval;dashed=1;html=1;dashPattern=1 1;strokeWidth=1;startSize=5;strokeColor=#858585;endFill=1;endSize=2;" edge="1" parent="93">
                    <mxGeometry width="50" height="50" relative="1" as="geometry">
                        <mxPoint x="103" y="83" as="sourcePoint"/>
                        <mxPoint x="103" y="3" as="targetPoint"/>
                    </mxGeometry>
                </mxCell>
                <mxCell id="54" value="" style="endArrow=oval;dashed=1;html=1;dashPattern=1 1;strokeWidth=1;startSize=5;strokeColor=#858585;endFill=1;endSize=2;" edge="1" parent="93">
                    <mxGeometry width="50" height="50" relative="1" as="geometry">
                        <mxPoint x="113" y="83" as="sourcePoint"/>
                        <mxPoint x="113" y="3" as="targetPoint"/>
                    </mxGeometry>
                </mxCell>
                <mxCell id="55" value="" style="endArrow=oval;dashed=1;html=1;dashPattern=1 1;strokeWidth=1;startSize=5;strokeColor=#858585;endFill=1;endSize=2;" edge="1" parent="93">
                    <mxGeometry width="50" height="50" relative="1" as="geometry">
                        <mxPoint x="123" y="83" as="sourcePoint"/>
                        <mxPoint x="123" y="3" as="targetPoint"/>
                    </mxGeometry>
                </mxCell>
                <mxCell id="56" value="" style="endArrow=oval;dashed=1;html=1;dashPattern=1 1;strokeWidth=1;startSize=5;strokeColor=#858585;endFill=1;endSize=2;" edge="1" parent="93">
                    <mxGeometry width="50" height="50" relative="1" as="geometry">
                        <mxPoint x="133" y="83" as="sourcePoint"/>
                        <mxPoint x="133" y="3" as="targetPoint"/>
                    </mxGeometry>
                </mxCell>
                <mxCell id="57" value="" style="endArrow=oval;dashed=1;html=1;dashPattern=1 1;strokeWidth=1;startSize=6;strokeColor=#858585;endFill=1;endSize=2;" edge="1" parent="93">
                    <mxGeometry width="50" height="50" relative="1" as="geometry">
                        <mxPoint x="143" y="83" as="sourcePoint"/>
                        <mxPoint x="143" y="3" as="targetPoint"/>
                    </mxGeometry>
                </mxCell>
                <mxCell id="58" value="" style="endArrow=oval;dashed=1;html=1;dashPattern=1 1;strokeWidth=1;startSize=6;strokeColor=#858585;endFill=1;endSize=2;" edge="1" parent="93">
                    <mxGeometry width="50" height="50" relative="1" as="geometry">
                        <mxPoint x="153" y="83" as="sourcePoint"/>
                        <mxPoint x="153" y="3" as="targetPoint"/>
                    </mxGeometry>
                </mxCell>
                <mxCell id="60" value="" style="endArrow=oval;dashed=1;html=1;dashPattern=1 1;strokeWidth=1;startSize=5;strokeColor=#858585;endFill=1;endSize=2;" edge="1" parent="93">
                    <mxGeometry width="50" height="50" relative="1" as="geometry">
                        <mxPoint x="53" y="83" as="sourcePoint"/>
                        <mxPoint x="53" y="3" as="targetPoint"/>
                    </mxGeometry>
                </mxCell>
                <mxCell id="61" value="" style="endArrow=oval;dashed=1;html=1;dashPattern=1 1;strokeWidth=1;startSize=5;strokeColor=#858585;endFill=1;endSize=2;" edge="1" parent="93">
                    <mxGeometry width="50" height="50" relative="1" as="geometry">
                        <mxPoint x="43.00000000000006" y="83" as="sourcePoint"/>
                        <mxPoint x="43.00000000000006" y="3" as="targetPoint"/>
                    </mxGeometry>
                </mxCell>
                <mxCell id="62" value="" style="endArrow=oval;dashed=1;html=1;dashPattern=1 1;strokeWidth=1;startSize=5;strokeColor=#858585;endFill=1;endSize=2;" edge="1" parent="93">
                    <mxGeometry width="50" height="50" relative="1" as="geometry">
                        <mxPoint x="33.00000000000006" y="83" as="sourcePoint"/>
                        <mxPoint x="33.00000000000006" y="3" as="targetPoint"/>
                    </mxGeometry>
                </mxCell>
                <mxCell id="63" value="" style="endArrow=oval;dashed=1;html=1;dashPattern=1 1;strokeWidth=1;startSize=5;strokeColor=#858585;endFill=1;endSize=2;" edge="1" parent="93">
                    <mxGeometry width="50" height="50" relative="1" as="geometry">
                        <mxPoint x="23.000000000000057" y="83" as="sourcePoint"/>
                        <mxPoint x="23.000000000000057" y="3" as="targetPoint"/>
                    </mxGeometry>
                </mxCell>
                <mxCell id="64" value="" style="endArrow=oval;dashed=1;html=1;dashPattern=1 1;strokeWidth=1;startSize=5;strokeColor=#858585;endFill=1;endSize=2;" edge="1" parent="93">
                    <mxGeometry width="50" height="50" relative="1" as="geometry">
                        <mxPoint x="13.000000000000057" y="83" as="sourcePoint"/>
                        <mxPoint x="13.000000000000057" y="3" as="targetPoint"/>
                    </mxGeometry>
                </mxCell>
                <mxCell id="65" value="" style="endArrow=oval;dashed=1;html=1;dashPattern=1 1;strokeWidth=1;startSize=2;strokeColor=#858585;endFill=1;endSize=2;startArrow=oval;startFill=1;" edge="1" parent="93">
                    <mxGeometry width="50" height="50" relative="1" as="geometry">
                        <mxPoint x="3.000000000000057" y="83" as="sourcePoint"/>
                        <mxPoint x="3.000000000000057" y="3" as="targetPoint"/>
                    </mxGeometry>
                </mxCell>
                <mxCell id="72" value="" style="endArrow=oval;dashed=1;html=1;dashPattern=1 1;strokeWidth=1;startSize=6;strokeColor=#858585;endFill=1;endSize=2;" edge="1" parent="93">
                    <mxGeometry width="50" height="50" relative="1" as="geometry">
                        <mxPoint x="163" y="83" as="sourcePoint"/>
                        <mxPoint x="163" y="3" as="targetPoint"/>
                    </mxGeometry>
                </mxCell>
                <mxCell id="73" value="" style="endArrow=none;dashed=1;html=1;dashPattern=1 1;strokeWidth=1;startSize=2;strokeColor=#858585;endFill=0;endSize=2;startArrow=oval;startFill=1;" edge="1" parent="93">
                    <mxGeometry width="50" height="50" relative="1" as="geometry">
                        <mxPoint x="13" y="83" as="sourcePoint"/>
                        <mxPoint x="3" y="3" as="targetPoint"/>
                    </mxGeometry>
                </mxCell>
                <mxCell id="74" value="" style="endArrow=none;dashed=1;html=1;dashPattern=1 1;strokeWidth=1;startSize=2;strokeColor=#858585;endFill=0;endSize=2;startArrow=oval;startFill=1;" edge="1" parent="93">
                    <mxGeometry width="50" height="50" relative="1" as="geometry">
                        <mxPoint x="23" y="83" as="sourcePoint"/>
                        <mxPoint x="13" y="3" as="targetPoint"/>
                    </mxGeometry>
                </mxCell>
                <mxCell id="75" value="" style="endArrow=none;dashed=1;html=1;dashPattern=1 1;strokeWidth=1;startSize=2;strokeColor=#858585;endFill=0;endSize=2;startArrow=oval;startFill=1;" edge="1" parent="93">
                    <mxGeometry width="50" height="50" relative="1" as="geometry">
                        <mxPoint x="33" y="83" as="sourcePoint"/>
                        <mxPoint x="23" y="3" as="targetPoint"/>
                    </mxGeometry>
                </mxCell>
                <mxCell id="76" value="" style="endArrow=none;dashed=1;html=1;dashPattern=1 1;strokeWidth=1;startSize=2;strokeColor=#858585;endFill=0;endSize=2;startArrow=oval;startFill=1;" edge="1" parent="93">
                    <mxGeometry width="50" height="50" relative="1" as="geometry">
                        <mxPoint x="43" y="83" as="sourcePoint"/>
                        <mxPoint x="33" y="3" as="targetPoint"/>
                    </mxGeometry>
                </mxCell>
                <mxCell id="77" value="" style="endArrow=none;dashed=1;html=1;dashPattern=1 1;strokeWidth=1;startSize=2;strokeColor=#858585;endFill=0;endSize=2;startArrow=oval;startFill=1;" edge="1" parent="93">
                    <mxGeometry width="50" height="50" relative="1" as="geometry">
                        <mxPoint x="53" y="83" as="sourcePoint"/>
                        <mxPoint x="43" y="3" as="targetPoint"/>
                    </mxGeometry>
                </mxCell>
                <mxCell id="78" value="" style="endArrow=none;dashed=1;html=1;dashPattern=1 1;strokeWidth=1;startSize=2;strokeColor=#858585;endFill=0;endSize=2;startArrow=oval;startFill=1;" edge="1" parent="93">
                    <mxGeometry width="50" height="50" relative="1" as="geometry">
                        <mxPoint x="63" y="83" as="sourcePoint"/>
                        <mxPoint x="53" y="3" as="targetPoint"/>
                    </mxGeometry>
                </mxCell>
                <mxCell id="79" value="" style="endArrow=none;dashed=1;html=1;dashPattern=1 1;strokeWidth=1;startSize=2;strokeColor=#858585;endFill=0;endSize=2;startArrow=oval;startFill=1;" edge="1" parent="93">
                    <mxGeometry width="50" height="50" relative="1" as="geometry">
                        <mxPoint x="73" y="83" as="sourcePoint"/>
                        <mxPoint x="63" y="3" as="targetPoint"/>
                    </mxGeometry>
                </mxCell>
                <mxCell id="80" value="" style="endArrow=none;dashed=1;html=1;dashPattern=1 1;strokeWidth=1;startSize=2;strokeColor=#858585;endFill=0;endSize=2;startArrow=oval;startFill=1;" edge="1" parent="93">
                    <mxGeometry width="50" height="50" relative="1" as="geometry">
                        <mxPoint x="83" y="83" as="sourcePoint"/>
                        <mxPoint x="73" y="3" as="targetPoint"/>
                    </mxGeometry>
                </mxCell>
                <mxCell id="81" value="" style="endArrow=none;dashed=1;html=1;dashPattern=1 1;strokeWidth=1;startSize=2;strokeColor=#858585;endFill=0;endSize=2;startArrow=oval;startFill=1;" edge="1" parent="93">
                    <mxGeometry width="50" height="50" relative="1" as="geometry">
                        <mxPoint x="93" y="83" as="sourcePoint"/>
                        <mxPoint x="83" y="3" as="targetPoint"/>
                    </mxGeometry>
                </mxCell>
                <mxCell id="82" value="" style="endArrow=none;dashed=1;html=1;dashPattern=1 1;strokeWidth=1;startSize=2;strokeColor=#858585;endFill=0;endSize=2;startArrow=oval;startFill=1;" edge="1" parent="93">
                    <mxGeometry width="50" height="50" relative="1" as="geometry">
                        <mxPoint x="103" y="83" as="sourcePoint"/>
                        <mxPoint x="93" y="3" as="targetPoint"/>
                    </mxGeometry>
                </mxCell>
                <mxCell id="83" value="" style="endArrow=none;dashed=1;html=1;dashPattern=1 1;strokeWidth=1;startSize=2;strokeColor=#858585;endFill=0;endSize=2;startArrow=oval;startFill=1;" edge="1" parent="93">
                    <mxGeometry width="50" height="50" relative="1" as="geometry">
                        <mxPoint x="113" y="83" as="sourcePoint"/>
                        <mxPoint x="103" y="3" as="targetPoint"/>
                    </mxGeometry>
                </mxCell>
                <mxCell id="84" value="" style="endArrow=none;dashed=1;html=1;dashPattern=1 1;strokeWidth=1;startSize=2;strokeColor=#858585;endFill=0;endSize=2;startArrow=oval;startFill=1;" edge="1" parent="93">
                    <mxGeometry width="50" height="50" relative="1" as="geometry">
                        <mxPoint x="123" y="83" as="sourcePoint"/>
                        <mxPoint x="113" y="3" as="targetPoint"/>
                    </mxGeometry>
                </mxCell>
                <mxCell id="85" value="" style="endArrow=none;dashed=1;html=1;dashPattern=1 1;strokeWidth=1;startSize=2;strokeColor=#858585;endFill=0;endSize=2;startArrow=oval;startFill=1;" edge="1" parent="93">
                    <mxGeometry width="50" height="50" relative="1" as="geometry">
                        <mxPoint x="133" y="83" as="sourcePoint"/>
                        <mxPoint x="123" y="3" as="targetPoint"/>
                    </mxGeometry>
                </mxCell>
                <mxCell id="86" value="" style="endArrow=none;dashed=1;html=1;dashPattern=1 1;strokeWidth=1;startSize=2;strokeColor=#858585;endFill=0;endSize=2;startArrow=oval;startFill=1;" edge="1" parent="93">
                    <mxGeometry width="50" height="50" relative="1" as="geometry">
                        <mxPoint x="143" y="83" as="sourcePoint"/>
                        <mxPoint x="133" y="3" as="targetPoint"/>
                    </mxGeometry>
                </mxCell>
                <mxCell id="87" value="" style="endArrow=none;dashed=1;html=1;dashPattern=1 1;strokeWidth=1;startSize=2;strokeColor=#858585;endFill=0;endSize=2;startArrow=oval;startFill=1;" edge="1" parent="93">
                    <mxGeometry width="50" height="50" relative="1" as="geometry">
                        <mxPoint x="153" y="83" as="sourcePoint"/>
                        <mxPoint x="143" y="3" as="targetPoint"/>
                    </mxGeometry>
                </mxCell>
                <mxCell id="88" value="" style="endArrow=none;dashed=1;html=1;dashPattern=1 1;strokeWidth=1;startSize=2;strokeColor=#858585;endFill=0;endSize=2;startArrow=oval;startFill=1;" edge="1" parent="93">
                    <mxGeometry width="50" height="50" relative="1" as="geometry">
                        <mxPoint x="163" y="83" as="sourcePoint"/>
                        <mxPoint x="153" y="3" as="targetPoint"/>
                    </mxGeometry>
                </mxCell>
                <mxCell id="91" value="" style="endArrow=oval;dashed=1;html=1;dashPattern=1 1;strokeWidth=1;startSize=2;strokeColor=#858585;endFill=1;endSize=2;startArrow=oval;startFill=1;" edge="1" parent="93">
                    <mxGeometry width="50" height="50" relative="1" as="geometry">
                        <mxPoint x="3" y="83" as="sourcePoint"/>
                        <mxPoint x="163" y="83" as="targetPoint"/>
                    </mxGeometry>
                </mxCell>
                <mxCell id="92" value="" style="endArrow=oval;dashed=1;html=1;dashPattern=1 1;strokeWidth=1;startSize=2;strokeColor=#858585;endFill=1;endSize=2;startArrow=oval;startFill=1;" edge="1" parent="93">
                    <mxGeometry width="50" height="50" relative="1" as="geometry">
                        <mxPoint x="3" y="3" as="sourcePoint"/>
                        <mxPoint x="163" y="3" as="targetPoint"/>
                    </mxGeometry>
                </mxCell>
                <mxCell id="71" value="" style="group" vertex="1" connectable="0" parent="124">
                    <mxGeometry x="47" y="25" width="166" height="113" as="geometry"/>
                </mxCell>
                <mxCell id="19" value="" style="rounded=0;whiteSpace=wrap;html=1;container=0;" vertex="1" parent="71">
                    <mxGeometry y="25" width="166" height="88" as="geometry"/>
                </mxCell>
                <mxCell id="2" value="" style="curved=1;endArrow=none;html=1;endFill=0;startSize=6;strokeWidth=2;" edge="1" parent="71">
                    <mxGeometry width="50" height="50" relative="1" as="geometry">
                        <mxPoint x="3" y="110" as="sourcePoint"/>
                        <mxPoint x="163" y="110" as="targetPoint"/>
                        <Array as="points">
                            <mxPoint x="43" y="110"/>
                            <mxPoint x="83"/>
                            <mxPoint x="123" y="110"/>
                        </Array>
                    </mxGeometry>
                </mxCell>
                <mxCell id="4" value="" style="endArrow=oval;dashed=1;html=1;dashPattern=1 1;strokeWidth=1;startSize=6;strokeColor=#858585;endFill=1;endSize=2;" edge="1" parent="71">
                    <mxGeometry width="50" height="50" relative="1" as="geometry">
                        <mxPoint x="23" y="110" as="sourcePoint"/>
                        <mxPoint x="23" y="106" as="targetPoint"/>
                    </mxGeometry>
                </mxCell>
                <mxCell id="6" value="" style="endArrow=oval;dashed=1;html=1;dashPattern=1 1;strokeWidth=1;startSize=5;strokeColor=#858585;endFill=1;endSize=2;" edge="1" parent="71">
                    <mxGeometry width="50" height="50" relative="1" as="geometry">
                        <mxPoint x="33" y="110" as="sourcePoint"/>
                        <mxPoint x="33" y="100" as="targetPoint"/>
                    </mxGeometry>
                </mxCell>
                <mxCell id="20" value="" style="endArrow=oval;dashed=1;html=1;dashPattern=1 1;strokeWidth=1;startSize=5;strokeColor=#858585;endFill=1;endSize=2;" edge="1" parent="71">
                    <mxGeometry width="50" height="50" relative="1" as="geometry">
                        <mxPoint x="43" y="110" as="sourcePoint"/>
                        <mxPoint x="43" y="91" as="targetPoint"/>
                    </mxGeometry>
                </mxCell>
                <mxCell id="21" value="" style="endArrow=oval;dashed=1;html=1;dashPattern=1 1;strokeWidth=1;startSize=5;strokeColor=#858585;endFill=1;endSize=2;" edge="1" parent="71">
                    <mxGeometry width="50" height="50" relative="1" as="geometry">
                        <mxPoint x="53" y="110" as="sourcePoint"/>
                        <mxPoint x="53" y="77" as="targetPoint"/>
                    </mxGeometry>
                </mxCell>
                <mxCell id="22" value="" style="endArrow=oval;dashed=1;html=1;dashPattern=1 1;strokeWidth=1;startSize=5;strokeColor=#858585;endFill=1;endSize=2;" edge="1" parent="71">
                    <mxGeometry width="50" height="50" relative="1" as="geometry">
                        <mxPoint x="63" y="110" as="sourcePoint"/>
                        <mxPoint x="63" y="55" as="targetPoint"/>
                    </mxGeometry>
                </mxCell>
                <mxCell id="23" value="" style="endArrow=oval;dashed=1;html=1;dashPattern=1 1;strokeWidth=1;startSize=5;strokeColor=#858585;endFill=1;endSize=2;" edge="1" parent="71">
                    <mxGeometry width="50" height="50" relative="1" as="geometry">
                        <mxPoint x="73" y="110" as="sourcePoint"/>
                        <mxPoint x="73" y="34" as="targetPoint"/>
                    </mxGeometry>
                </mxCell>
                <mxCell id="30" value="" style="endArrow=oval;dashed=1;html=1;dashPattern=1 1;strokeWidth=1;startSize=5;strokeColor=#858585;endFill=1;endSize=2;" edge="1" parent="71">
                    <mxGeometry width="50" height="50" relative="1" as="geometry">
                        <mxPoint x="83" y="110" as="sourcePoint"/>
                        <mxPoint x="83" y="27" as="targetPoint"/>
                    </mxGeometry>
                </mxCell>
                <mxCell id="31" value="" style="endArrow=oval;dashed=1;html=1;dashPattern=1 1;strokeWidth=1;startSize=5;strokeColor=#858585;endFill=1;endSize=2;" edge="1" parent="71">
                    <mxGeometry width="50" height="50" relative="1" as="geometry">
                        <mxPoint x="93" y="110" as="sourcePoint"/>
                        <mxPoint x="93" y="34" as="targetPoint"/>
                    </mxGeometry>
                </mxCell>
                <mxCell id="32" value="" style="endArrow=oval;dashed=1;html=1;dashPattern=1 1;strokeWidth=1;startSize=5;strokeColor=#858585;endFill=1;endSize=2;" edge="1" parent="71">
                    <mxGeometry width="50" height="50" relative="1" as="geometry">
                        <mxPoint x="103" y="110" as="sourcePoint"/>
                        <mxPoint x="103" y="55" as="targetPoint"/>
                    </mxGeometry>
                </mxCell>
                <mxCell id="33" value="" style="endArrow=oval;dashed=1;html=1;dashPattern=1 1;strokeWidth=1;startSize=5;strokeColor=#858585;endFill=1;endSize=2;" edge="1" parent="71">
                    <mxGeometry width="50" height="50" relative="1" as="geometry">
                        <mxPoint x="113" y="110" as="sourcePoint"/>
                        <mxPoint x="113" y="77" as="targetPoint"/>
                    </mxGeometry>
                </mxCell>
                <mxCell id="34" value="" style="endArrow=oval;dashed=1;html=1;dashPattern=1 1;strokeWidth=1;startSize=5;strokeColor=#858585;endFill=1;endSize=2;" edge="1" parent="71">
                    <mxGeometry width="50" height="50" relative="1" as="geometry">
                        <mxPoint x="123" y="110" as="sourcePoint"/>
                        <mxPoint x="123" y="91" as="targetPoint"/>
                    </mxGeometry>
                </mxCell>
                <mxCell id="35" value="" style="endArrow=oval;dashed=1;html=1;dashPattern=1 1;strokeWidth=1;startSize=5;strokeColor=#858585;endFill=1;endSize=2;" edge="1" parent="71">
                    <mxGeometry width="50" height="50" relative="1" as="geometry">
                        <mxPoint x="133" y="110" as="sourcePoint"/>
                        <mxPoint x="133" y="100" as="targetPoint"/>
                    </mxGeometry>
                </mxCell>
                <mxCell id="36" value="" style="endArrow=oval;dashed=1;html=1;dashPattern=1 1;strokeWidth=1;startSize=6;strokeColor=#858585;endFill=1;endSize=2;" edge="1" parent="71">
                    <mxGeometry width="50" height="50" relative="1" as="geometry">
                        <mxPoint x="143" y="110" as="sourcePoint"/>
                        <mxPoint x="143" y="106" as="targetPoint"/>
                    </mxGeometry>
                </mxCell>
                <mxCell id="66" value="" style="endArrow=oval;dashed=1;html=1;dashPattern=1 1;strokeWidth=0;startSize=6;strokeColor=#858585;endFill=1;endSize=3;" edge="1" parent="71" source="19">
                    <mxGeometry width="50" height="50" relative="1" as="geometry">
                        <mxPoint x="-2" y="105" as="sourcePoint"/>
                        <mxPoint x="3.000000000000057" y="110" as="targetPoint"/>
                    </mxGeometry>
                </mxCell>
                <mxCell id="67" value="" style="endArrow=oval;dashed=1;html=1;dashPattern=1 1;strokeWidth=0;startSize=6;strokeColor=#858585;endFill=1;endSize=3;" edge="1" parent="71">
                    <mxGeometry width="50" height="50" relative="1" as="geometry">
                        <mxPoint x="158" y="110" as="sourcePoint"/>
                        <mxPoint x="163" y="110" as="targetPoint"/>
                    </mxGeometry>
                </mxCell>
                <mxCell id="40" value="" style="endArrow=oval;dashed=1;html=1;dashPattern=1 1;strokeWidth=0;startSize=6;strokeColor=#858585;endFill=1;endSize=3;" edge="1" parent="71">
                    <mxGeometry width="50" height="50" relative="1" as="geometry">
                        <mxPoint x="28" y="105" as="sourcePoint"/>
                        <mxPoint x="13" y="109" as="targetPoint"/>
                    </mxGeometry>
                </mxCell>
                <mxCell id="39" value="" style="endArrow=oval;dashed=1;html=1;dashPattern=1 1;strokeWidth=0;startSize=6;strokeColor=#858585;endFill=1;endSize=3;" edge="1" parent="71">
                    <mxGeometry width="50" height="50" relative="1" as="geometry">
                        <mxPoint x="143" y="105" as="sourcePoint"/>
                        <mxPoint x="153" y="109" as="targetPoint"/>
                    </mxGeometry>
                </mxCell>
                <mxCell id="97" value="" style="endArrow=diamond;dashed=1;html=1;strokeColor=#2D7600;strokeWidth=1;startSize=2;endSize=2;fillColor=#60a917;endFill=1;" edge="1" parent="71">
                    <mxGeometry width="50" height="50" relative="1" as="geometry">
                        <mxPoint x="83" y="210" as="sourcePoint"/>
                        <mxPoint x="83" y="10" as="targetPoint"/>
                    </mxGeometry>
                </mxCell>
                <mxCell id="96" value="" style="endArrow=diamond;dashed=1;html=1;strokeColor=#2D7600;strokeWidth=1;startSize=2;endSize=2;fillColor=#60a917;endFill=1;" edge="1" parent="71">
                    <mxGeometry width="50" height="50" relative="1" as="geometry">
                        <mxPoint x="3" y="210" as="sourcePoint"/>
                        <mxPoint x="3" y="10" as="targetPoint"/>
                    </mxGeometry>
                </mxCell>
                <mxCell id="102" value="&lt;font style=&quot;font-size: 5px;&quot;&gt;Sample n&lt;/font&gt;" style="edgeLabel;html=1;align=center;verticalAlign=middle;resizable=0;points=[];labelBackgroundColor=none;" vertex="1" connectable="0" parent="96">
                    <mxGeometry x="0.9466" relative="1" as="geometry">
                        <mxPoint y="-12" as="offset"/>
                    </mxGeometry>
                </mxCell>
                <mxCell id="103" value="&lt;font style=&quot;font-size: 5px;&quot;&gt;Sample n+1&lt;/font&gt;" style="edgeLabel;html=1;align=center;verticalAlign=middle;resizable=0;points=[];labelBackgroundColor=none;" vertex="1" connectable="0" parent="71">
                    <mxGeometry x="82" y="2.997777777777742" as="geometry"/>
                </mxCell>
                <mxCell id="101" value="" style="endArrow=diamond;dashed=1;html=1;strokeColor=#2D7600;strokeWidth=1;startSize=2;endSize=2;fillColor=#60a917;startArrow=none;startFill=0;endFill=1;" edge="1" parent="124">
                    <mxGeometry width="50" height="50" relative="1" as="geometry">
                        <mxPoint x="210" y="235" as="sourcePoint"/>
                        <mxPoint x="210" y="35" as="targetPoint"/>
                    </mxGeometry>
                </mxCell>
                <mxCell id="104" value="&lt;font style=&quot;font-size: 5px;&quot;&gt;Sample n+2&lt;/font&gt;" style="edgeLabel;html=1;align=center;verticalAlign=middle;resizable=0;points=[];labelBackgroundColor=none;" vertex="1" connectable="0" parent="124">
                    <mxGeometry x="209" y="27.997777777777742" as="geometry"/>
                </mxCell>
                <mxCell id="119" value="Hann window" style="text;html=1;strokeColor=none;fillColor=none;align=center;verticalAlign=middle;whiteSpace=wrap;rounded=0;labelBackgroundColor=none;strokeWidth=0;fontSize=10;" vertex="1" parent="124">
                    <mxGeometry y="80" width="45" height="30" as="geometry"/>
                </mxCell>
                <mxCell id="120" value="Bar vertices" style="text;html=1;strokeColor=none;fillColor=none;align=center;verticalAlign=middle;whiteSpace=wrap;rounded=0;labelBackgroundColor=none;strokeWidth=0;fontSize=10;" vertex="1" parent="124">
                    <mxGeometry y="171" width="45" height="30" as="geometry"/>
                </mxCell>
            </root>
        </mxGraphModel>
    </diagram>
</mxfile>
